<mxfile host="app.diagrams.net" agent="Mozilla/5.0 (Windows NT 10.0; Win64; x64) AppleWebKit/537.36 (KHTML, like Gecko) Chrome/131.0.0.0 Safari/537.36 Edg/131.0.0.0" version="25.0.1">
  <diagram name="Seite-1" id="7Z2n8NRHYL78i5VnA810">
    <mxGraphModel dx="1426" dy="749" grid="1" gridSize="10" guides="1" tooltips="1" connect="1" arrows="1" fold="1" page="1" pageScale="1" pageWidth="3300" pageHeight="4681" math="0" shadow="0">
      <root>
        <mxCell id="0" />
        <mxCell id="1" parent="0" />
        <mxCell id="aCKU920z_-HXYej2S6lC-1" value="" style="rounded=0;whiteSpace=wrap;html=1;" vertex="1" parent="1">
          <mxGeometry x="520" y="270" width="640" height="420" as="geometry" />
        </mxCell>
        <mxCell id="aCKU920z_-HXYej2S6lC-4" value="Python proj&lt;span style=&quot;white-space: pre;&quot;&gt;&#x9;&lt;/span&gt;" style="rounded=1;whiteSpace=wrap;html=1;" vertex="1" parent="1">
          <mxGeometry x="550" y="360" width="120" height="60" as="geometry" />
        </mxCell>
        <mxCell id="aCKU920z_-HXYej2S6lC-5" value="Rainer schreiben" style="rounded=1;whiteSpace=wrap;html=1;" vertex="1" parent="1">
          <mxGeometry x="700" y="360" width="120" height="60" as="geometry" />
        </mxCell>
        <mxCell id="aCKU920z_-HXYej2S6lC-6" value="" style="rounded=1;whiteSpace=wrap;html=1;" vertex="1" parent="1">
          <mxGeometry x="1000" y="360" width="120" height="60" as="geometry" />
        </mxCell>
        <mxCell id="aCKU920z_-HXYej2S6lC-7" value="" style="rounded=1;whiteSpace=wrap;html=1;" vertex="1" parent="1">
          <mxGeometry x="850" y="360" width="120" height="60" as="geometry" />
        </mxCell>
        <mxCell id="aCKU920z_-HXYej2S6lC-8" value="" style="rounded=1;whiteSpace=wrap;html=1;" vertex="1" parent="1">
          <mxGeometry x="550" y="530" width="120" height="60" as="geometry" />
        </mxCell>
        <mxCell id="aCKU920z_-HXYej2S6lC-10" value="" style="rounded=1;whiteSpace=wrap;html=1;" vertex="1" parent="1">
          <mxGeometry x="550" y="450" width="120" height="60" as="geometry" />
        </mxCell>
        <mxCell id="aCKU920z_-HXYej2S6lC-11" value="Arbeit Hobby Sport" style="rounded=0;whiteSpace=wrap;html=1;" vertex="1" parent="1">
          <mxGeometry x="520" y="270" width="640" height="50" as="geometry" />
        </mxCell>
        <mxCell id="aCKU920z_-HXYej2S6lC-12" value="" style="rounded=1;whiteSpace=wrap;html=1;" vertex="1" parent="1">
          <mxGeometry x="700" y="450" width="120" height="60" as="geometry" />
        </mxCell>
        <mxCell id="aCKU920z_-HXYej2S6lC-13" value="" style="rounded=1;whiteSpace=wrap;html=1;" vertex="1" parent="1">
          <mxGeometry x="700" y="530" width="120" height="60" as="geometry" />
        </mxCell>
        <mxCell id="aCKU920z_-HXYej2S6lC-14" value="" style="rounded=1;whiteSpace=wrap;html=1;" vertex="1" parent="1">
          <mxGeometry x="850" y="440" width="120" height="60" as="geometry" />
        </mxCell>
        <mxCell id="aCKU920z_-HXYej2S6lC-15" value="" style="rounded=1;whiteSpace=wrap;html=1;" vertex="1" parent="1">
          <mxGeometry x="850" y="520" width="120" height="60" as="geometry" />
        </mxCell>
        <mxCell id="aCKU920z_-HXYej2S6lC-16" value="" style="rounded=1;whiteSpace=wrap;html=1;" vertex="1" parent="1">
          <mxGeometry x="1000" y="440" width="120" height="60" as="geometry" />
        </mxCell>
        <mxCell id="aCKU920z_-HXYej2S6lC-17" value="" style="rounded=1;whiteSpace=wrap;html=1;" vertex="1" parent="1">
          <mxGeometry x="1000" y="520" width="120" height="60" as="geometry" />
        </mxCell>
        <mxCell id="aCKU920z_-HXYej2S6lC-18" value="NEU" style="rounded=1;whiteSpace=wrap;html=1;" vertex="1" parent="1">
          <mxGeometry x="1000" y="610" width="120" height="60" as="geometry" />
        </mxCell>
        <mxCell id="aCKU920z_-HXYej2S6lC-19" value="Name&lt;div&gt;Beschreibung&lt;br&gt;&lt;div&gt;Datum&lt;/div&gt;&lt;div&gt;bis wann&lt;/div&gt;&lt;/div&gt;" style="rounded=0;whiteSpace=wrap;html=1;" vertex="1" parent="1">
          <mxGeometry x="160" y="290" width="260" height="260" as="geometry" />
        </mxCell>
        <mxCell id="aCKU920z_-HXYej2S6lC-20" value="Lschen" style="rounded=1;whiteSpace=wrap;html=1;" vertex="1" parent="1">
          <mxGeometry x="230" y="480" width="120" height="60" as="geometry" />
        </mxCell>
        <mxCell id="aCKU920z_-HXYej2S6lC-21" value="" style="rounded=0;whiteSpace=wrap;html=1;" vertex="1" parent="1">
          <mxGeometry x="1060" y="330" width="80" height="20" as="geometry" />
        </mxCell>
      </root>
    </mxGraphModel>
  </diagram>
</mxfile>
